<?xml version="1.0" encoding="UTF-8"?>
<!DOCTYPE svg PUBLIC "-//W3C//DTD SVG 1.1//EN" "http://www.w3.org/Graphics/SVG/1.1/DTD/svg11.dtd">
<!-- Creator: CorelDRAW 2019 (64-Bit) -->
<svg xmlns="http://www.w3.org/2000/svg" xml:space="preserve" width="414px" height="414px" version="1.1" style="shape-rendering:geometricPrecision; text-rendering:geometricPrecision; image-rendering:optimizeQuality; fill-rule:evenodd; clip-rule:evenodd"
viewBox="0 0 70.16 70.16"
 xmlns:xlink="http://www.w3.org/1999/xlink"
 xmlns:xodm="http://www.corel.com/coreldraw/odm/2003">
 <defs>
  <style type="text/css">
   <![CDATA[
    .fil2 {fill:none}
    .fil3 {fill:#AC4615}
    .fil4 {fill:#D85A27}
    .fil1 {fill:#FE792E}
    .fil0 {fill:#FFA978}
   ]]>
  </style>
   <clipPath id="id0">
    <path d="M0 21.44l0 26.17c0,2.57 3.38,4.93 6.33,7.87 17.67,17.65 10.97,14.45 28.65,14.45 19.53,0 11.19,3.11 32.2,-17.45 1.45,-1.41 2.98,-2.02 2.98,-4.87l0 -24.53c0,-3.86 -2.21,-4.72 -4.31,-6.81l-11.22 -11.17c-1.36,-1.35 -4.12,-5.1 -6.54,-5.1l-25.68 0c-2.16,0 -4.05,1.89 -6.55,4.38l-12.34 12.35c-3.49,3.49 -3.52,4.05 -3.52,4.71z"/>
   </clipPath>
   <clipPath id="id1">
    <path d="M7.31 24.28l0 20.72c0,2.04 2.68,3.9 5.01,6.23 13.99,13.97 8.69,11.44 22.68,11.44 15.46,0 8.86,2.46 25.49,-13.81 1.15,-1.12 2.36,-1.61 2.36,-3.86l0 -19.42c0,-3.06 -1.75,-3.74 -3.41,-5.4l-8.88 -8.84c-1.08,-1.07 -3.27,-4.03 -5.18,-4.03l-20.33 0c-1.71,0 -3.21,1.5 -5.19,3.46l-9.77 9.78c-2.76,2.77 -2.78,3.21 -2.78,3.73z"/>
   </clipPath>
 </defs>
 <g id="Capa_x0020_1">
  <metadata id="CorelCorpID_0Corel-Layer"/>
  <path class="fil0" d="M0 21.44l0 26.17c0,2.57 3.38,4.93 6.33,7.87 17.67,17.65 10.97,14.45 28.65,14.45 19.53,0 11.19,3.11 32.2,-17.45 1.45,-1.41 2.98,-2.02 2.98,-4.87l0 -24.53c0,-3.86 -2.21,-4.72 -4.31,-6.81l-11.22 -11.17c-1.36,-1.35 -4.12,-5.1 -6.54,-5.1l-25.68 0c-2.16,0 -4.05,1.89 -6.55,4.38l-12.34 12.35c-3.49,3.49 -3.52,4.05 -3.52,4.71z"/>
  <g style="clip-path:url(#id0)">
   <g id="_2750892005696">
    <path id="1" class="fil1" d="M5.11 24.9l0 26.17c0,2.57 3.38,4.92 6.32,7.86 17.67,17.66 10.98,14.46 28.65,14.46 19.54,0 11.2,3.1 32.21,-17.45 1.45,-1.42 2.97,-2.02 2.97,-4.87l0 -24.54c0,-3.86 -2.21,-4.72 -4.31,-6.81l-11.21 -11.16c-1.36,-1.36 -4.12,-5.1 -6.54,-5.1l-25.69 0c-2.15,0 -4.05,1.89 -6.54,4.37l-12.35 12.36c-3.48,3.49 -3.51,4.05 -3.51,4.71z"/>
   </g>
  </g>
  <path class="fil2" d="M0 21.44l0 26.17c0,2.57 3.38,4.93 6.33,7.87 17.67,17.65 10.97,14.45 28.65,14.45 19.53,0 11.19,3.11 32.2,-17.45 1.45,-1.41 2.98,-2.02 2.98,-4.87l0 -24.53c0,-3.86 -2.21,-4.72 -4.31,-6.81l-11.22 -11.17c-1.36,-1.35 -4.12,-5.1 -6.54,-5.1l-25.68 0c-2.16,0 -4.05,1.89 -6.55,4.38l-12.34 12.35c-3.49,3.49 -3.52,4.05 -3.52,4.71z"/>
  <path class="fil3" d="M7.31 24.28l0 20.72c0,2.04 2.68,3.9 5.01,6.23 13.99,13.97 8.69,11.44 22.68,11.44 15.46,0 8.86,2.46 25.49,-13.81 1.15,-1.12 2.36,-1.61 2.36,-3.86l0 -19.42c0,-3.06 -1.75,-3.74 -3.41,-5.4l-8.88 -8.84c-1.08,-1.07 -3.27,-4.03 -5.18,-4.03l-20.33 0c-1.71,0 -3.21,1.5 -5.19,3.46l-9.77 9.78c-2.76,2.77 -2.78,3.21 -2.78,3.73z"/>
  <g style="clip-path:url(#id1)">
   <g id="_2750892006208">
    <path id="1" class="fil4" d="M11.21 28.44l0.01 21.58c0,2.12 2.78,4.06 5.2,6.48 14.52,14.55 9.02,11.92 23.54,11.92 16.06,0 9.2,2.56 26.48,-14.39 1.19,-1.16 2.44,-1.67 2.44,-4.01l0 -20.23c0,-3.18 -1.82,-3.89 -3.54,-5.61l-9.22 -9.21c-1.12,-1.11 -3.39,-4.2 -5.38,-4.2l-21.11 0c-2.58,0 -3.94,2.41 -5.33,3.8 -1.88,1.88 -13.09,12.23 -13.09,13.87z"/>
   </g>
  </g>
  <path class="fil2" d="M7.31 24.28l0 20.72c0,2.04 2.68,3.9 5.01,6.23 13.99,13.97 8.69,11.44 22.68,11.44 15.46,0 8.86,2.46 25.49,-13.81 1.15,-1.12 2.36,-1.61 2.36,-3.86l0 -19.42c0,-3.06 -1.75,-3.74 -3.41,-5.4l-8.88 -8.84c-1.08,-1.07 -3.27,-4.03 -5.18,-4.03l-20.33 0c-1.71,0 -3.21,1.5 -5.19,3.46l-9.77 9.78c-2.76,2.77 -2.78,3.21 -2.78,3.73z"/>
 </g>
</svg>
