<?xml version="1.0" encoding="UTF-8"?>
<!DOCTYPE svg PUBLIC "-//W3C//DTD SVG 1.1//EN" "http://www.w3.org/Graphics/SVG/1.1/DTD/svg11.dtd">
<!-- Creator: CorelDRAW 2019 (64-Bit) -->
<svg xmlns="http://www.w3.org/2000/svg" xml:space="preserve" width="414px" height="414px" version="1.1" style="shape-rendering:geometricPrecision; text-rendering:geometricPrecision; image-rendering:optimizeQuality; fill-rule:evenodd; clip-rule:evenodd"
viewBox="0 0 161.89 161.89"
 xmlns:xlink="http://www.w3.org/1999/xlink"
 xmlns:xodm="http://www.corel.com/coreldraw/odm/2003">
 <defs>
  <style type="text/css">
   <![CDATA[
    .fil2 {fill:none}
    .fil3 {fill:#9E1F18}
    .fil4 {fill:#B62C1F}
    .fil1 {fill:#F64F3C}
    .fil0 {fill:#F98377}
   ]]>
  </style>
   <clipPath id="id0">
    <path d="M0 49.47l0.01 60.4c0,5.93 7.8,11.36 14.59,18.15 40.78,40.74 25.33,33.35 66.11,33.35 45.08,0 25.83,7.17 74.32,-40.26 3.35,-3.27 6.86,-4.67 6.86,-11.24l0 -56.62c0,-8.9 -5.09,-10.89 -9.94,-15.72l-25.88 -25.76c-3.14,-3.12 -9.51,-11.77 -15.09,-11.77l-59.27 0c-4.97,0 -9.35,4.36 -15.11,10.1l-28.49 28.51c-8.04,8.05 -8.11,9.35 -8.11,10.86z"/>
   </clipPath>
   <clipPath id="id1">
    <path d="M16.86 56.03l0.01 47.82c0,4.69 6.18,8.99 11.55,14.36 32.28,32.25 20.05,26.41 52.34,26.41 35.69,0 20.45,5.67 58.84,-31.88 2.65,-2.59 5.43,-3.7 5.43,-8.89l0 -44.83c0,-7.05 -4.03,-8.62 -7.87,-12.44l-20.49 -20.4c-2.49,-2.47 -7.53,-9.32 -11.95,-9.32l-46.92 0.01c-3.93,0 -7.4,3.45 -11.96,7.99l-22.55 22.57c-6.37,6.37 -6.43,7.4 -6.43,8.6z"/>
   </clipPath>
 </defs>
 <g id="Capa_x0020_1">
  <metadata id="CorelCorpID_0Corel-Layer"/>
  <path class="fil0" d="M0 49.47l0.01 60.4c0,5.93 7.8,11.36 14.59,18.15 40.78,40.74 25.33,33.35 66.11,33.35 45.08,0 25.83,7.17 74.32,-40.26 3.35,-3.27 6.86,-4.67 6.86,-11.24l0 -56.62c0,-8.9 -5.09,-10.89 -9.94,-15.72l-25.88 -25.76c-3.14,-3.12 -9.51,-11.77 -15.09,-11.77l-59.27 0c-4.97,0 -9.35,4.36 -15.11,10.1l-28.49 28.51c-8.04,8.05 -8.11,9.35 -8.11,10.86z"/>
  <g style="clip-path:url(#id0)">
   <g id="_2750890055104">
    <path id="1" class="fil1" d="M11.78 57.45l0.01 60.4c0,5.93 7.8,11.36 14.6,18.15 40.77,40.73 25.32,33.35 66.11,33.35 45.08,0 25.83,7.17 74.32,-40.26 3.34,-3.27 6.86,-4.67 6.86,-11.24l0 -56.62c0,-8.91 -5.1,-10.89 -9.94,-15.72l-25.88 -25.77c-3.14,-3.12 -9.52,-11.76 -15.1,-11.76l-59.27 0c-4.97,0 -9.35,4.36 -15.11,10.1l-28.48 28.5c-8.05,8.06 -8.12,9.36 -8.12,10.87z"/>
   </g>
  </g>
  <path class="fil2" d="M0 49.47l0.01 60.4c0,5.93 7.8,11.36 14.59,18.15 40.78,40.74 25.33,33.35 66.11,33.35 45.08,0 25.83,7.17 74.32,-40.26 3.35,-3.27 6.86,-4.67 6.86,-11.24l0 -56.62c0,-8.9 -5.09,-10.89 -9.94,-15.72l-25.88 -25.76c-3.14,-3.12 -9.51,-11.77 -15.09,-11.77l-59.27 0c-4.97,0 -9.35,4.36 -15.11,10.1l-28.49 28.51c-8.04,8.05 -8.11,9.35 -8.11,10.86z"/>
  <path class="fil3" d="M16.86 56.03l0.01 47.82c0,4.69 6.18,8.99 11.55,14.36 32.28,32.25 20.05,26.41 52.34,26.41 35.69,0 20.45,5.67 58.84,-31.88 2.65,-2.59 5.43,-3.7 5.43,-8.89l0 -44.83c0,-7.05 -4.03,-8.62 -7.87,-12.44l-20.49 -20.4c-2.49,-2.47 -7.53,-9.32 -11.95,-9.32l-46.92 0.01c-3.93,0 -7.4,3.45 -11.96,7.99l-22.55 22.57c-6.37,6.37 -6.43,7.4 -6.43,8.6z"/>
  <g style="clip-path:url(#id1)">
   <g id="_2750890059584">
    <path id="1" class="fil4" d="M25.88 65.64l0.01 49.79c0,4.88 6.41,9.36 11.99,14.96 33.52,33.57 20.82,27.49 54.34,27.49 37.05,0 21.23,5.91 61.09,-33.19 2.75,-2.7 5.64,-3.85 5.64,-9.26l0 -46.68c0,-7.34 -4.19,-8.97 -8.18,-12.96l-21.27 -21.24c-2.58,-2.57 -7.82,-9.7 -12.4,-9.7l-48.72 0.01c-5.96,0 -9.09,5.55 -12.3,8.76 -4.35,4.34 -30.2,28.22 -30.2,32.02z"/>
   </g>
  </g>
  <path class="fil2" d="M16.86 56.03l0.01 47.82c0,4.69 6.18,8.99 11.55,14.36 32.28,32.25 20.05,26.41 52.34,26.41 35.69,0 20.45,5.67 58.84,-31.88 2.65,-2.59 5.43,-3.7 5.43,-8.89l0 -44.83c0,-7.05 -4.03,-8.62 -7.87,-12.44l-20.49 -20.4c-2.49,-2.47 -7.53,-9.32 -11.95,-9.32l-46.92 0.01c-3.93,0 -7.4,3.45 -11.96,7.99l-22.55 22.57c-6.37,6.37 -6.43,7.4 -6.43,8.6z"/>
 </g>
</svg>
