<?xml version="1.0" encoding="UTF-8"?>
<!DOCTYPE svg PUBLIC "-//W3C//DTD SVG 1.1//EN" "http://www.w3.org/Graphics/SVG/1.1/DTD/svg11.dtd">
<!-- Creator: CorelDRAW 2019 (64-Bit) -->
<svg xmlns="http://www.w3.org/2000/svg" xml:space="preserve" width="414px" height="414px" version="1.1" style="shape-rendering:geometricPrecision; text-rendering:geometricPrecision; image-rendering:optimizeQuality; fill-rule:evenodd; clip-rule:evenodd"
viewBox="0 0 621.8 621.8"
 xmlns:xlink="http://www.w3.org/1999/xlink"
 xmlns:xodm="http://www.corel.com/coreldraw/odm/2003">
 <defs>
  <style type="text/css">
   <![CDATA[
    .fil2 {fill:none}
    .fil3 {fill:#FB9600}
    .fil4 {fill:#FFA303}
    .fil1 {fill:#FFD131}
    .fil0 {fill:#FFE493}
   ]]>
  </style>
   <clipPath id="id0">
    <path d="M0 190.02l0.03 231.98c0,22.77 29.96,43.63 56.05,69.7 156.61,156.46 97.27,128.09 253.92,128.09 173.14,0 99.21,27.55 285.46,-154.62 12.84,-12.57 26.34,-17.95 26.34,-43.17l0 -217.48c0,-34.2 -19.57,-41.81 -38.18,-60.36l-99.4 -98.97c-12.07,-11.97 -36.56,-45.19 -57.97,-45.19l-227.65 0.01c-19.09,0 -35.91,16.75 -58.04,38.79l-109.39 109.48c-30.91,30.94 -31.17,35.93 -31.17,41.74z"/>
   </clipPath>
   <clipPath id="id1">
    <path d="M64.77 215.2l0.03 183.65c0,18.03 23.71,34.54 44.37,55.18 123.98,123.86 77.01,101.41 201.02,101.41 137.07,0 78.54,21.81 225.98,-122.41 10.17,-9.95 20.86,-14.21 20.86,-34.18l0 -172.17c0,-27.07 -15.5,-33.1 -30.23,-47.78l-78.69 -78.35c-9.55,-9.48 -28.94,-35.78 -45.89,-35.78l-180.22 0.01c-15.12,0 -28.44,13.26 -45.95,30.71l-86.6 86.67c-24.47,24.49 -24.68,28.44 -24.68,33.04z"/>
   </clipPath>
 </defs>
 <g id="Capa_x0020_1">
  <metadata id="CorelCorpID_0Corel-Layer"/>
  <path class="fil0" d="M0 190.02l0.03 231.98c0,22.77 29.96,43.63 56.05,69.7 156.61,156.46 97.27,128.09 253.92,128.09 173.14,0 99.21,27.55 285.46,-154.62 12.84,-12.57 26.34,-17.95 26.34,-43.17l0 -217.48c0,-34.2 -19.57,-41.81 -38.18,-60.36l-99.4 -98.97c-12.07,-11.97 -36.56,-45.19 -57.97,-45.19l-227.65 0.01c-19.09,0 -35.91,16.75 -58.04,38.79l-109.39 109.48c-30.91,30.94 -31.17,35.93 -31.17,41.74z"/>
  <g style="clip-path:url(#id0)">
   <g id="_2750730984928">
    <path id="1" class="fil1" d="M45.26 220.66l0.03 231.98c0,22.76 29.95,43.63 56.05,69.7 156.61,156.45 97.27,128.09 253.92,128.09 173.14,0 99.21,27.55 285.45,-154.63 12.85,-12.56 26.35,-17.95 26.35,-43.16l0 -217.49c0,-34.19 -19.57,-41.81 -38.18,-60.35l-99.4 -98.97c-12.07,-11.98 -36.56,-45.19 -57.97,-45.19l-227.65 0.01c-19.09,0 -35.92,16.75 -58.04,38.79l-109.39 109.48c-30.91,30.94 -31.17,35.92 -31.17,41.74z"/>
   </g>
  </g>
  <path class="fil2" d="M0 190.02l0.03 231.98c0,22.77 29.96,43.63 56.05,69.7 156.61,156.46 97.27,128.09 253.92,128.09 173.14,0 99.21,27.55 285.46,-154.62 12.84,-12.57 26.34,-17.95 26.34,-43.17l0 -217.48c0,-34.2 -19.57,-41.81 -38.18,-60.36l-99.4 -98.97c-12.07,-11.97 -36.56,-45.19 -57.97,-45.19l-227.65 0.01c-19.09,0 -35.91,16.75 -58.04,38.79l-109.39 109.48c-30.91,30.94 -31.17,35.93 -31.17,41.74z"/>
  <path class="fil3" d="M64.77 215.2l0.03 183.65c0,18.03 23.71,34.54 44.37,55.18 123.98,123.86 77.01,101.41 201.02,101.41 137.07,0 78.54,21.81 225.98,-122.41 10.17,-9.95 20.86,-14.21 20.86,-34.18l0 -172.17c0,-27.07 -15.5,-33.1 -30.23,-47.78l-78.69 -78.35c-9.55,-9.48 -28.94,-35.78 -45.89,-35.78l-180.22 0.01c-15.12,0 -28.44,13.26 -45.95,30.71l-86.6 86.67c-24.47,24.49 -24.68,28.44 -24.68,33.04z"/>
  <g style="clip-path:url(#id1)">
   <g id="_2750730986688">
    <path id="1" class="fil4" d="M99.4 252.1l0.02 191.22c0,18.77 24.62,35.97 46.07,57.46 128.72,128.97 79.96,105.59 208.71,105.59 142.31,0 81.54,22.71 234.62,-127.46 10.56,-10.36 21.65,-14.8 21.65,-35.59l0 -179.27c0,-28.19 -16.08,-34.47 -31.38,-49.75l-81.69 -81.59c-9.93,-9.87 -30.05,-37.25 -47.65,-37.25l-187.12 0.01c-22.9,0 -34.93,21.33 -47.25,33.65 -16.68,16.69 -115.98,108.4 -115.98,122.98z"/>
   </g>
  </g>
  <path class="fil2" d="M64.77 215.2l0.03 183.65c0,18.03 23.71,34.54 44.37,55.18 123.98,123.86 77.01,101.41 201.02,101.41 137.07,0 78.54,21.81 225.98,-122.41 10.17,-9.95 20.86,-14.21 20.86,-34.18l0 -172.17c0,-27.07 -15.5,-33.1 -30.23,-47.78l-78.69 -78.35c-9.55,-9.48 -28.94,-35.78 -45.89,-35.78l-180.22 0.01c-15.12,0 -28.44,13.26 -45.95,30.71l-86.6 86.67c-24.47,24.49 -24.68,28.44 -24.68,33.04z"/>
 </g>
</svg>
